<svg height="512pt" viewBox="0 0 512 512" width="512pt" xmlns="http://www.w3.org/2000/svg" xmlns:xlink="http://www.w3.org/1999/xlink"><linearGradient id="a" gradientUnits="userSpaceOnUse" x1="0" x2="512" y1="256" y2="256"><stop offset="0" stop-color="#00f1ff"/><stop offset=".231" stop-color="#00d8ff"/><stop offset=".5138" stop-color="#00c0ff"/><stop offset=".7773" stop-color="#00b2ff"/><stop offset="1" stop-color="#00adff"/></linearGradient><path d="m512 256c0 141.386719-114.613281 256-256 256s-256-114.613281-256-256 114.613281-256 256-256 256 114.613281 256 256zm0 0" fill="url(#a)"/><g fill="#fff"><path d="m318.78125 248.453125c0 7.492187-6.074219 13.566406-13.566406 13.566406-7.492188 0-13.566406-6.074219-13.566406-13.566406s6.074218-13.566406 13.566406-13.566406c7.492187 0 13.566406 6.074219 13.566406 13.566406zm0 0"/><path d="m383.222656 184.011719c0 7.492187-6.074218 13.566406-13.566406 13.566406s-13.566406-6.074219-13.566406-13.566406c0-7.492188 6.074218-13.566407 13.566406-13.566407s13.566406 6.074219 13.566406 13.566407zm0 0"/><path d="m358.125 287.792969c0 7.492187-6.074219 13.566406-13.566406 13.566406-7.492188 0-13.566406-6.074219-13.566406-13.566406 0-7.492188 6.074218-13.566407 13.566406-13.566407 7.492187 0 13.566406 6.074219 13.566406 13.566407zm0 0"/><path d="m422.5625 223.355469c0 7.492187-6.070312 13.566406-13.566406 13.566406-7.492188 0-13.5625-6.074219-13.5625-13.566406 0-7.492188 6.070312-13.566407 13.5625-13.566407 7.496094 0 13.566406 6.074219 13.566406 13.566407zm0 0"/><path d="m370.335938 236.921875c0 7.492187-6.074219 13.5625-13.566407 13.5625-7.492187 0-13.566406-6.070313-13.566406-13.5625 0-7.496094 6.074219-13.566406 13.566406-13.566406 7.492188 0 13.566407 6.070312 13.566407 13.566406zm0 0"/><path d="m331.808594 161.304688c13.859375-4.964844 26.652344-14.46875 31.582031-18.390626 5.199219-4.132812 7.058594-11.195312 4.574219-17.355468-.167969-.40625-4.105469-10.097656-10.113282-19.875-10.253906-16.675782-21.023437-24.78125-32.925781-24.78125-47.308593 0-75.363281 9.6875-88.578125 15.964844-14.40625-7.722657-32.363281-15.964844-58.65625-15.964844-27.757812 0-50.679687 13.378906-66.28125 38.691406-14.582031 23.65625-21.976562 56.308594-21.976562 97.050781 0 143.910157 31.664062 204.070313 33.011718 206.5625 2.71875 5.023438 7.902344 7.890625 13.246094 7.890625.347656 0 .699219-.019531 1.050782-.042968.085937 0 .167968.011718.25.011718.074218 0 .140624-.007812.210937-.007812.152344.003906.304687.011718.457031.011718 5.359375 0 10.546875-2.882812 13.246094-7.941406 9.097656-17.058594 20.289062-34.714844 33.265625-52.480468 4.886719-6.6875 3.421875-16.074219-3.269531-20.960938-6.683594-4.882812-16.070313-3.421875-20.957032 3.269531-2.945312 4.03125-5.789062 8.0625-8.5625 12.085938.6875-12.769531 2.339844-27.230469 5.875-43.230469 2.375-10.753906 10.214844-19.324219 20.191407-23.042969.304687.015625.609375.027344.921875.027344 12.902344 0 28.472656 30.179687 39.84375 52.214844 15.300781 29.65625 29.753906 57.671875 53.761718 57.671875 4.574219 0 8.898438-2.085938 11.746094-5.667969 2.84375-3.582031 3.898438-8.265625 2.867188-12.722656-5.148438-22.199219-4.011719-33.488281-2.914063-44.402344 1.125-11.148437 2.285157-22.675781-2.890625-41.109375-6.285156-22.386719-26.921875-38.019531-50.1875-38.019531h-42.046875c-14.0625 0-27.855469 4.839843-38.828125 13.625-11 8.804687-18.730468 21.21875-21.761718 34.957031-.546876 2.46875-1.050782 4.90625-1.519532 7.308594-4.046875-27.855469-7.007812-62.945313-7.007812-106.011719 0-66.210937 21.777344-105.738281 58.257812-105.738281 16.578125 0 28.644532 4.410156 39.414063 9.78125-5.765625 15.871094-13.953125 44.976562-13.953125 82.359375 0 11.722656 8.226562 22.871093 25.148437 34.082031 10.070313 6.671875 20.039063 11.269531 20.457031 11.464844 2.019532.925781 4.148438 1.371094 6.253907 1.371094 4.925781 0 9.707031-2.4375 12.558593-6.789063 3.394532-5.191406 11.503907-18.402344 15.875-32.308594 8.9375 2.007813 18.433594 2.535157 25.890626 2.535157 4.621093 0 8.460937-.199219 10.898437-.371094 7.4375-.527344 13.363281-6.4375 13.902344-13.878906.476562-6.519532 1.167969-23.082032-2.328125-37.84375zm-101.207032 135.457031c9.875 0 18.636719 6.632812 21.304688 16.128906 3.636719 12.964844 2.917969 20.105469 1.921875 29.992187-.304687 3.042969-.628906 6.269532-.84375 9.828126-2.648437-4.875-5.34375-10.097657-8.109375-15.457032-7.109375-13.78125-14.628906-28.351562-23.359375-40.492187zm104.480469-170.570313c-7.996093 4.976563-16.003906 8.578125-19.164062 8.296875-1.050781-.234375-2.097657-.347656-3.132813-.359375-9.265625-5.804687-22.933594-12.523437-36.421875-18.660156 12.042969-2.519531 27.726563-4.492188 47.484375-4.5625 2.761719 1.734375 7.230469 7.960938 11.234375 15.285156zm-85.816406 88.710938c-7.855469-4.761719-14.410156-9.878906-16.109375-12.878906.078125-16.960938 2.085938-31.953126 4.664062-44.300782 6.128907 13.328125 12.730469 26.550782 18.363282 35.246094.058594.371094.113281.738281.199218 1.105469.515626 3.238281-2.5625 11.832031-7.117187 20.828125zm33.886719-35.601563c-3.335938-3.644531-10.894532-18.542969-19.03125-36.363281 17.855468 8.144531 32.769531 15.710938 36.359375 19.019531 2.011719 2.609375 3.5 11.421875 3.90625 21.300781-9.835938-.421874-18.609375-1.929687-21.234375-3.957031zm0 0"/></g></svg>